<svg xmlns="http://www.w3.org/2000/svg" viewBox="0 0 130 130" width="256" height="256">
  <rect width="130" height="130" rx="30" fill="#2B2D31" />

  <g transform="translate(20, 13)">
    <path d="M 10,10 L 50,10 C 55.5,10 60,14.5 60,20 L 60,50 C 60,55.5 55.5,60 50,60 L 25,60 L 10,75 L 10,60 C 4.5,60 0,55.5 0,50 L 0,20 C 0,14.5 4.5,10 10,10 Z" fill="#4285F4"/>
    <g stroke="#ffffff" fill="none" stroke-width="2.5" stroke-linecap="round">
      <circle cx="30" cy="35" r="12"/>
      <ellipse cx="30" cy="35" rx="5" ry="12"/>
      <line x1="18" y1="35" x2="42" y2="35"/>
      <line x1="30" y1="23" x2="30" y2="47"/>
    </g>
  </g>

  <g transform="translate(50, 33)">
    <path d="M 10,10 L 50,10 C 55.5,10 60,14.5 60,20 L 60,50 C 60,55.5 55.5,60 50,60 L 50,75 L 35,60 L 10,60 C 4.5,60 0,55.5 0,50 L 0,20 C 0,14.5 4.5,10 10,10 Z" fill="#F4B400" stroke="#2B2D31" stroke-width="5" stroke-linejoin="round"/>
    <g fill="#ffffff">
      <rect x="27.5" y="23" width="5" height="24" rx="1.5"/>
      <rect x="27.5" y="23" width="5" height="24" rx="1.5" transform="rotate(45 30 35)"/>
      <rect x="27.5" y="23" width="5" height="24" rx="1.5" transform="rotate(90 30 35)"/>
      <rect x="27.5" y="23" width="5" height="24" rx="1.5" transform="rotate(135 30 35)"/>
      <circle cx="30" cy="35" r="8"/>
      <circle cx="30" cy="35" r="3.5" fill="#F4B400"/>
    </g>
  </g>
</svg>